<svg xmlns="http://www.w3.org/2000/svg" xmlns:xlink="http://www.w3.org/1999/xlink" version="1.1" id="Laag_1" x="0px" y="0px" width="192.1px" height="46.3px" viewBox="0 0 192.1 46.3" style="enable-background:new 0 0 192.1 46.3;" xml:space="preserve">
<style type="text/css">
	.st0{fill:#0087EE;}
	.st1{fill:#0153FF;}
	.st2{opacity:0.78;fill:#09DFFF;}
	.st3{opacity:0.79;fill:url(#SVGID_1_);}
	.st4{opacity:0.79;fill:url(#SVGID_2_);}
	.st5{fill:#141F40;}
</style>
    <g>
	<g>
		<path class="st1" d="M15.2,0.6v30.2L1.5,44.3C0.9,44.8,0,44.4,0,43.6V15.6L15.2,0.6z"/>
        <path class="st1" d="M45.7,2.7v28.1l-15.2,15V15.6L44.2,2.1C44.7,1.5,45.7,1.9,45.7,2.7z"/>
        <path class="st2" d="M45.7,30.8l-15.2,15L15.8,31.4c-0.2-0.2-0.1-0.6,0.2-0.6H45.7z"/>
        <path class="st2" d="M29.6,15.6H0l15.2-15L29.8,15C30.1,15.2,29.9,15.6,29.6,15.6z"/>
        <linearGradient id="SVGID_1_" gradientUnits="userSpaceOnUse" x1="15.1486" y1="16.5455" x2="0.2248" y2="16.5455">
			<stop offset="0" style="stop-color:#000000;stop-opacity:0"/>
            <stop offset="9.608090e-02" style="stop-color:#000000;stop-opacity:8.647281e-02"/>
            <stop offset="1" style="stop-color:#000000;stop-opacity:0.9"/>
		</linearGradient>
        <polygon class="st3" points="15.2,15.6 15.2,17.5 0,15.6   "/>

        <linearGradient id="SVGID_2_" gradientUnits="userSpaceOnUse" x1="-1459.8807" y1="-678.6908" x2="-1474.8044" y2="-678.6908" gradientTransform="matrix(-1 0 0 -1 -1429.36 -648.8727)">
			<stop offset="0" style="stop-color:#000000;stop-opacity:0"/>
            <stop offset="9.608090e-02" style="stop-color:#000000;stop-opacity:8.647281e-02"/>
            <stop offset="1" style="stop-color:#000000;stop-opacity:0.9"/>
		</linearGradient>
        <polygon class="st4" points="30.4,30.8 30.4,28.8 45.7,30.8   "/>
	</g>
        <g>
		<path class="st5" d="M61.1,33.5v-22h3.5l11.6,15.3V11.5H80v22h-3.2L64.9,17.9v15.5H61.1z"/>
            <path class="st5" d="M83.4,25.5c0-2.5,0.8-4.5,2.3-6.1c1.6-1.5,3.6-2.3,6-2.3c2.3,0,4.2,0.8,5.6,2.3c1.5,1.5,2.2,3.4,2.2,5.7    c0,0.5,0,0.9-0.1,1.3H87.2c0.1,2.5,2,4.2,4.8,4.2c1.6,0,3.1-0.6,4.3-1.8l2.3,2.2c-1.8,1.9-4,2.8-6.7,2.8c-2.5,0-4.5-0.8-6.1-2.2    s-2.3-3.5-2.3-6V25.5z M95.7,23.8c0-0.9-0.4-1.8-1.2-2.4c-0.8-0.7-1.7-1-2.8-1c-1.2,0-2.2,0.3-3.1,1c-0.9,0.7-1.3,1.5-1.4,2.5    H95.7z"/>
            <path class="st5" d="M105.5,33.5l-5.3-15.9h3.6l3.3,9.9l3.2-9.9h2.9l3.2,9.9l3.3-9.9h3.6l-5.3,15.9H115l-3.3-10.1l-3.3,10.1H105.5    z"/>
            <path class="st5" d="M125.9,28.6c0.7,1.1,2.3,2,4.2,2c2,0,2.8-0.8,2.8-1.7c0-0.5-0.4-1-0.9-1.3c-0.3-0.2-1-0.4-1.5-0.6    s-1.4-0.4-2-0.7c-2.6-0.9-3.9-2.2-3.9-4.5c0-1.5,0.5-2.6,1.6-3.5c1.1-0.9,2.4-1.3,4-1.3c2.2,0,3.9,0.8,5.1,2.3l-2.1,2.2    c-0.7-0.9-1.7-1.3-3.1-1.3c-1.2,0-1.9,0.6-1.9,1.4c0,0.5,0.3,0.8,0.7,1.1c0.3,0.2,0.9,0.4,1.3,0.6c0.5,0.1,1.4,0.4,2,0.7    c2.9,1,4.3,2.5,4.3,4.7c0,2.9-2.2,5-6.5,5c-3.2,0-5.5-1.2-6.6-3.2L125.9,28.6z"/>
            <path class="st5" d="M138.5,13.5c0-1.3,1-2.2,2.3-2.2c1.2,0,2.2,1,2.2,2.2c0,1.3-1,2.2-2.2,2.2C139.5,15.7,138.5,14.7,138.5,13.5z     M138.9,33.5V17.6h3.8v15.9H138.9z"/>
            <path class="st5" d="M147.8,33.5V21h-2.6v-3.4h2.6v-0.8c0-2.4,0.5-3.7,1.7-4.7c1-0.7,2.5-1.1,4.5-1.1c1.1,0,2,0.1,2.6,0.2v3.2    c-0.5-0.1-1.3-0.2-2.1-0.2c-2.2,0-3.1,0.6-3.1,2.2v1.1h8.5v15.9h-3.7V21h-4.7v12.4H147.8z"/>
            <path class="st5" d="M162.5,25.5c0-2.5,0.8-4.5,2.3-6.1c1.6-1.5,3.6-2.3,6-2.3c2.3,0,4.2,0.8,5.6,2.3c1.5,1.5,2.2,3.4,2.2,5.7    c0,0.5,0,0.9-0.1,1.3h-12.4c0.1,2.5,2,4.2,4.8,4.2c1.6,0,3.1-0.6,4.3-1.8l2.3,2.2c-1.8,1.9-4,2.8-6.7,2.8c-2.5,0-4.5-0.8-6.1-2.2    s-2.3-3.5-2.3-6V25.5z M174.9,23.8c0-0.9-0.4-1.8-1.2-2.4c-0.8-0.7-1.7-1-2.8-1c-1.2,0-2.2,0.3-3.1,1c-0.9,0.7-1.3,1.5-1.4,2.5    H174.9z"/>
            <path class="st5" d="M181.2,33.5V17.6h3.7v2.4c0.8-1.7,2.5-2.7,4.7-2.7c0.4,0,0.8,0,1.1,0.1V21c-0.5-0.1-1-0.2-1.6-0.2    c-2.6,0-4.3,1.6-4.3,4.3v8.4H181.2z"/>
	</g>
</g>
</svg>
